<svg width="82" height="90" viewBox="0 0 82 90" fill="none" xmlns="http://www.w3.org/2000/svg">
<path d="M16.852 0L14.6669 4.52163L9.69462 5.11618L13.474 8.45628L12.478 13.5725L16.852 11.0163L21.2297 13.5725L20.2337 8.45628L24.0131 5.11618L19.0408 4.52163L16.852 0ZM21.2297 13.5725H12.478H10.2778C4.60107 13.5725 0 18.1735 0 23.8503V87.2515C5.14142e-05 87.7657 0.204347 88.2589 0.567954 88.6225C0.931562 88.9861 1.4247 89.1904 1.93892 89.1905H79.4958C80.0101 89.1904 80.5032 88.9861 80.8668 88.6225C81.2304 88.2589 81.4347 87.7657 81.4348 87.2515V23.8503C81.4348 18.1735 76.8337 13.5725 71.157 13.5725H68.9567H60.2051H53.0477H44.2961H37.1387H28.387H21.2297ZM28.387 13.5725L32.761 11.0163L37.1387 13.5725L36.1427 8.45628L39.9221 5.11618L34.9498 4.52163L32.761 0L30.5759 4.52163L25.6036 5.11618L29.383 8.45628L28.387 13.5725ZM44.2961 13.5725L48.6738 11.0163L53.0477 13.5725L52.0518 8.45628L55.8311 5.11618L50.8589 4.52163L48.6738 0L46.4849 4.52163L41.5126 5.11618L45.292 8.45628L44.2961 13.5725ZM60.2051 13.5725L64.5828 11.0163L68.9567 13.5725L67.9608 8.45628L71.7402 5.11618L66.7679 4.52163L64.5828 0L62.3939 4.52163L57.4217 5.11618L61.201 8.45628L60.2051 13.5725ZM10.2778 17.4503H71.157C74.7871 17.4503 77.5569 20.2202 77.5569 23.8503V85.3126H48.4731V69.8012C48.473 69.287 48.2687 68.7939 47.9051 68.4303C47.5415 68.0667 47.0484 67.8624 46.5342 67.8623H34.9006C34.3864 67.8624 33.8933 68.0667 33.5296 68.4303C33.166 68.7939 32.9617 69.287 32.9617 69.8012V85.3126H3.87785V23.8503C3.87785 20.2202 6.64771 17.4503 10.2778 17.4503ZM11.6335 21.3282C11.1193 21.3282 10.6262 21.5325 10.2626 21.8961C9.89896 22.2597 9.69467 22.7529 9.69462 23.2671V31.0228C9.69467 31.537 9.89896 32.0301 10.2626 32.3937C10.6262 32.7573 11.1193 32.9616 11.6335 32.9617H23.2671C23.7813 32.9616 24.2744 32.7573 24.638 32.3937C25.0017 32.0301 25.2059 31.537 25.206 31.0228V23.2671C25.2059 22.7529 25.0017 22.2597 24.638 21.8961C24.2744 21.5325 23.7813 21.3282 23.2671 21.3282H11.6335ZM34.9006 21.3282C34.3864 21.3282 33.8933 21.5325 33.5296 21.8961C33.166 22.2597 32.9617 22.7529 32.9617 23.2671V31.0228C32.9617 31.537 33.166 32.0301 33.5296 32.3937C33.8933 32.7573 34.3864 32.9616 34.9006 32.9617H46.5342C47.0484 32.9616 47.5415 32.7573 47.9051 32.3937C48.2687 32.0301 48.473 31.537 48.4731 31.0228V23.2671C48.473 22.7529 48.2687 22.2597 47.9051 21.8961C47.5415 21.5325 47.0484 21.3282 46.5342 21.3282H34.9006ZM58.1677 21.3282C57.6535 21.3282 57.1603 21.5325 56.7967 21.8961C56.4331 22.2597 56.2288 22.7529 56.2288 23.2671V31.0228C56.2288 31.537 56.4331 32.0301 56.7967 32.3937C57.1603 32.7573 57.6535 32.9616 58.1677 32.9617H69.8012C70.3155 32.9616 70.8086 32.7573 71.1722 32.3937C71.5358 32.0301 71.7401 31.537 71.7402 31.0228V23.2671C71.7401 22.7529 71.5358 22.2597 71.1722 21.8961C70.8086 21.5325 70.3155 21.3282 69.8012 21.3282H58.1677ZM13.5725 25.206H21.3282V29.0838H13.5725V25.206ZM36.8395 25.206H44.5952V29.0838H36.8395V25.206ZM60.1066 25.206H67.8623V29.0838H60.1066V25.206ZM11.6335 36.8395C11.1193 36.8396 10.6262 37.0439 10.2626 37.4075C9.89896 37.7711 9.69467 38.2642 9.69462 38.7785V46.5341C9.69467 47.0484 9.89896 47.5415 10.2626 47.9051C10.6262 48.2687 11.1193 48.473 11.6335 48.4731H23.2671C23.7813 48.473 24.2744 48.2687 24.638 47.9051C25.0017 47.5415 25.2059 47.0484 25.206 46.5341V38.7785C25.2059 38.2642 25.0017 37.7711 24.638 37.4075C24.2744 37.0439 23.7813 36.8396 23.2671 36.8395H11.6335ZM34.9006 36.8395C34.3864 36.8396 33.8933 37.0439 33.5296 37.4075C33.166 37.7711 32.9617 38.2642 32.9617 38.7785V46.5341C32.9617 47.0484 33.166 47.5415 33.5296 47.9051C33.8933 48.2687 34.3864 48.473 34.9006 48.4731H46.5342C47.0484 48.473 47.5415 48.2687 47.9051 47.9051C48.2687 47.5415 48.473 47.0484 48.4731 46.5341V38.7785C48.473 38.2642 48.2687 37.7711 47.9051 37.4075C47.5415 37.0439 47.0484 36.8396 46.5342 36.8395H34.9006ZM58.1677 36.8395C57.6535 36.8396 57.1603 37.0439 56.7967 37.4075C56.4331 37.7711 56.2288 38.2642 56.2288 38.7785V46.5341C56.2288 47.0484 56.4331 47.5415 56.7967 47.9051C57.1603 48.2687 57.6535 48.473 58.1677 48.4731H69.8012C70.3155 48.473 70.8086 48.2687 71.1722 47.9051C71.5358 47.5415 71.7401 47.0484 71.7402 46.5341V38.7785C71.7401 38.2642 71.5358 37.7711 71.1722 37.4075C70.8086 37.0439 70.3155 36.8396 69.8012 36.8395H58.1677ZM13.5725 40.7174H21.3282V44.5952H13.5725V40.7174ZM36.8395 40.7174H44.5952V44.5952H36.8395V40.7174ZM60.1066 40.7174H67.8623V44.5952H60.1066V40.7174ZM11.6335 52.3509C11.1193 52.351 10.6262 52.5553 10.2626 52.9189C9.89896 53.2825 9.69467 53.7756 9.69462 54.2898V62.0455C9.69467 62.5597 9.89896 63.0529 10.2626 63.4165C10.6262 63.7801 11.1193 63.9844 11.6335 63.9845H23.2671C23.7813 63.9844 24.2744 63.7801 24.638 63.4165C25.0017 63.0529 25.2059 62.5597 25.206 62.0455V54.2898C25.2059 53.7756 25.0017 53.2825 24.638 52.9189C24.2744 52.5553 23.7813 52.351 23.2671 52.3509H11.6335ZM34.9006 52.3509C34.3864 52.351 33.8933 52.5553 33.5296 52.9189C33.166 53.2825 32.9617 53.7756 32.9617 54.2898V62.0455C32.9617 62.5597 33.166 63.0529 33.5296 63.4165C33.8933 63.7801 34.3864 63.9844 34.9006 63.9845H46.5342C47.0484 63.9844 47.5415 63.7801 47.9051 63.4165C48.2687 63.0529 48.473 62.5597 48.4731 62.0455V54.2898C48.473 53.7756 48.2687 53.2825 47.9051 52.9189C47.5415 52.5553 47.0484 52.351 46.5342 52.3509H34.9006ZM58.1677 52.3509C57.6535 52.351 57.1603 52.5553 56.7967 52.9189C56.4331 53.2825 56.2288 53.7756 56.2288 54.2898V62.0455C56.2288 62.5597 56.4331 63.0529 56.7967 63.4165C57.1603 63.7801 57.6535 63.9844 58.1677 63.9845H69.8012C70.3155 63.9844 70.8086 63.7801 71.1722 63.4165C71.5358 63.0529 71.7401 62.5597 71.7402 62.0455V54.2898C71.7401 53.7756 71.5358 53.2825 71.1722 52.9189C70.8086 52.5553 70.3155 52.351 69.8012 52.3509H58.1677ZM13.5725 56.2288H21.3282V60.1066H13.5725V56.2288ZM36.8395 56.2288H44.5952V60.1066H36.8395V56.2288ZM60.1066 56.2288H67.8623V60.1066H60.1066V56.2288ZM11.6335 67.8623C11.1193 67.8624 10.6262 68.0667 10.2626 68.4303C9.89896 68.7939 9.69467 69.287 9.69462 69.8012V77.5569C9.69467 78.0711 9.89896 78.5643 10.2626 78.9279C10.6262 79.2915 11.1193 79.4958 11.6335 79.4958H23.2671C23.7813 79.4958 24.2744 79.2915 24.638 78.9279C25.0017 78.5643 25.2059 78.0711 25.206 77.5569V69.8012C25.2059 69.287 25.0017 68.7939 24.638 68.4303C24.2744 68.0667 23.7813 67.8624 23.2671 67.8623H11.6335ZM58.1677 67.8623C57.6535 67.8624 57.1603 68.0667 56.7967 68.4303C56.4331 68.7939 56.2288 69.287 56.2288 69.8012V77.5569C56.2288 78.0711 56.4331 78.5643 56.7967 78.9279C57.1603 79.2915 57.6535 79.4958 58.1677 79.4958H69.8012C70.3155 79.4958 70.8086 79.2915 71.1722 78.9279C71.5358 78.5643 71.7401 78.0711 71.7402 77.5569V69.8012C71.7401 69.287 71.5358 68.7939 71.1722 68.4303C70.8086 68.0667 70.3155 67.8624 69.8012 67.8623H58.1677ZM13.5725 71.7401H21.3282V75.618H13.5725V71.7401ZM36.8395 71.7401H44.5952V85.3126H36.8395V71.7401ZM60.1066 71.7401H67.8623V75.618H60.1066V71.7401Z" fill="#7F2F3A"/>
</svg>
