<svg width="231" height="126" viewBox="0 0 231 126" fill="none" xmlns="http://www.w3.org/2000/svg">
<path d="M84.4702 20.665V46H77.6302V20.665H69.1252V14.59H92.9752V20.665H84.4702ZM103.935 46.54C102.195 46.54 100.635 46.255 99.2551 45.685C97.9051 45.115 96.7501 44.29 95.7901 43.21C94.8601 42.13 94.1401 40.825 93.6301 39.295C93.1201 37.765 92.8651 36.055 92.8651 34.165C92.8651 32.275 93.1201 30.565 93.6301 29.035C94.1401 27.505 94.8601 26.215 95.7901 25.165C96.7501 24.085 97.9051 23.26 99.2551 22.69C100.635 22.12 102.195 21.835 103.935 21.835C105.675 21.835 107.22 22.12 108.57 22.69C109.95 23.26 111.105 24.085 112.035 25.165C112.995 26.215 113.73 27.505 114.24 29.035C114.75 30.565 115.005 32.275 115.005 34.165C115.005 36.055 114.75 37.765 114.24 39.295C113.73 40.825 112.995 42.13 112.035 43.21C111.105 44.29 109.95 45.115 108.57 45.685C107.22 46.255 105.675 46.54 103.935 46.54ZM103.935 41.275C105.255 41.275 106.275 40.87 106.995 40.06C107.715 39.25 108.075 38.095 108.075 36.595V31.78C108.075 30.28 107.715 29.125 106.995 28.315C106.275 27.505 105.255 27.1 103.935 27.1C102.615 27.1 101.595 27.505 100.875 28.315C100.155 29.125 99.7951 30.28 99.7951 31.78V36.595C99.7951 38.095 100.155 39.25 100.875 40.06C101.595 40.87 102.615 41.275 103.935 41.275ZM133.701 42.04H133.476C133.266 42.64 132.981 43.21 132.621 43.75C132.291 44.29 131.856 44.77 131.316 45.19C130.776 45.61 130.131 45.94 129.381 46.18C128.661 46.42 127.821 46.54 126.861 46.54C124.431 46.54 122.586 45.745 121.326 44.155C120.096 42.535 119.481 40.225 119.481 37.225V22.375H126.141V36.64C126.141 38.08 126.396 39.19 126.906 39.97C127.416 40.75 128.286 41.14 129.516 41.14C130.026 41.14 130.536 41.065 131.046 40.915C131.556 40.765 132.006 40.555 132.396 40.285C132.786 39.985 133.101 39.625 133.341 39.205C133.581 38.785 133.701 38.29 133.701 37.72V22.375H140.361V46H133.701V42.04ZM146.557 46V22.375H153.217V27.505H153.442C153.562 26.845 153.772 26.215 154.072 25.615C154.372 24.985 154.762 24.43 155.242 23.95C155.752 23.47 156.352 23.095 157.042 22.825C157.732 22.525 158.542 22.375 159.472 22.375H160.642V28.585H158.977C157.027 28.585 155.572 28.84 154.612 29.35C153.682 29.86 153.217 30.805 153.217 32.185V46H146.557ZM168.081 19.855C166.731 19.855 165.741 19.555 165.111 18.955C164.511 18.325 164.211 17.53 164.211 16.57V15.58C164.211 14.62 164.511 13.84 165.111 13.24C165.741 12.61 166.731 12.295 168.081 12.295C169.431 12.295 170.406 12.61 171.006 13.24C171.636 13.84 171.951 14.62 171.951 15.58V16.57C171.951 17.53 171.636 18.325 171.006 18.955C170.406 19.555 169.431 19.855 168.081 19.855ZM164.751 22.375H171.411V46H164.751V22.375ZM185.636 46.54C183.356 46.54 181.436 46.18 179.876 45.46C178.316 44.71 176.921 43.66 175.691 42.31L179.606 38.35C180.446 39.28 181.376 40.015 182.396 40.555C183.416 41.095 184.571 41.365 185.861 41.365C187.181 41.365 188.096 41.17 188.606 40.78C189.116 40.36 189.371 39.805 189.371 39.115C189.371 38.005 188.576 37.345 186.986 37.135L184.421 36.82C179.111 36.16 176.456 33.73 176.456 29.53C176.456 28.39 176.666 27.355 177.086 26.425C177.536 25.465 178.151 24.655 178.931 23.995C179.741 23.305 180.701 22.78 181.811 22.42C182.951 22.03 184.226 21.835 185.636 21.835C186.866 21.835 187.946 21.925 188.876 22.105C189.836 22.255 190.676 22.495 191.396 22.825C192.146 23.125 192.821 23.515 193.421 23.995C194.051 24.445 194.666 24.955 195.266 25.525L191.441 29.44C190.691 28.69 189.836 28.105 188.876 27.685C187.946 27.235 186.986 27.01 185.996 27.01C184.856 27.01 184.046 27.19 183.566 27.55C183.086 27.91 182.846 28.39 182.846 28.99C182.846 29.62 183.011 30.115 183.341 30.475C183.701 30.805 184.361 31.045 185.321 31.195L187.976 31.555C193.166 32.245 195.761 34.615 195.761 38.665C195.761 39.805 195.521 40.855 195.041 41.815C194.561 42.775 193.871 43.615 192.971 44.335C192.101 45.025 191.036 45.565 189.776 45.955C188.546 46.345 187.166 46.54 185.636 46.54ZM208.231 46C205.921 46 204.166 45.415 202.966 44.245C201.796 43.075 201.211 41.365 201.211 39.115V27.55H197.881V22.375H199.546C200.446 22.375 201.061 22.165 201.391 21.745C201.721 21.295 201.886 20.665 201.886 19.855V15.985H207.871V22.375H212.551V27.55H207.871V40.825H212.191V46H208.231ZM91.3102 103.005H91.0852C90.8452 104.595 90.0352 105.915 88.6552 106.965C87.2752 108.015 85.4002 108.54 83.0302 108.54C81.2302 108.54 79.5502 108.195 77.9902 107.505C76.4302 106.815 75.0652 105.795 73.8952 104.445C72.7252 103.095 71.8102 101.415 71.1502 99.405C70.4902 97.395 70.1602 95.07 70.1602 92.43C70.1602 89.79 70.5052 87.45 71.1952 85.41C71.8852 83.37 72.8452 81.66 74.0752 80.28C75.3352 78.9 76.8352 77.85 78.5752 77.13C80.3152 76.41 82.2502 76.05 84.3802 76.05C87.2002 76.05 89.6302 76.665 91.6702 77.895C93.7102 79.095 95.3152 80.91 96.4852 83.34L90.9052 86.535C90.4252 85.305 89.6752 84.27 88.6552 83.43C87.6352 82.56 86.2102 82.125 84.3802 82.125C82.2502 82.125 80.5552 82.74 79.2952 83.97C78.0352 85.2 77.4052 87.135 77.4052 89.775V94.815C77.4052 97.425 78.0352 99.36 79.2952 100.62C80.5552 101.85 82.2502 102.465 84.3802 102.465C85.2202 102.465 86.0152 102.375 86.7652 102.195C87.5152 101.985 88.1752 101.685 88.7452 101.295C89.3152 100.875 89.7502 100.38 90.0502 99.81C90.3802 99.24 90.5452 98.565 90.5452 97.785V96.21H84.6952V90.495H97.0702V108H91.3102V103.005ZM117.309 104.04H117.084C116.874 104.64 116.589 105.21 116.229 105.75C115.899 106.29 115.464 106.77 114.924 107.19C114.384 107.61 113.739 107.94 112.989 108.18C112.269 108.42 111.429 108.54 110.469 108.54C108.039 108.54 106.194 107.745 104.934 106.155C103.704 104.535 103.089 102.225 103.089 99.225V84.375H109.749V98.64C109.749 100.08 110.004 101.19 110.514 101.97C111.024 102.75 111.894 103.14 113.124 103.14C113.634 103.14 114.144 103.065 114.654 102.915C115.164 102.765 115.614 102.555 116.004 102.285C116.394 101.985 116.709 101.625 116.949 101.205C117.189 100.785 117.309 100.29 117.309 99.72V84.375H123.969V108H117.309V104.04ZM133.496 81.855C132.146 81.855 131.156 81.555 130.526 80.955C129.926 80.325 129.626 79.53 129.626 78.57V77.58C129.626 76.62 129.926 75.84 130.526 75.24C131.156 74.61 132.146 74.295 133.496 74.295C134.846 74.295 135.821 74.61 136.421 75.24C137.051 75.84 137.366 76.62 137.366 77.58V78.57C137.366 79.53 137.051 80.325 136.421 80.955C135.821 81.555 134.846 81.855 133.496 81.855ZM130.166 84.375H136.826V108H130.166V84.375ZM157.532 104.04H157.307C157.127 104.67 156.842 105.27 156.452 105.84C156.062 106.38 155.582 106.86 155.012 107.28C154.472 107.67 153.842 107.97 153.122 108.18C152.432 108.42 151.712 108.54 150.962 108.54C147.962 108.54 145.697 107.49 144.167 105.39C142.637 103.26 141.872 100.185 141.872 96.165C141.872 92.145 142.637 89.085 144.167 86.985C145.697 84.885 147.962 83.835 150.962 83.835C152.492 83.835 153.842 84.255 155.012 85.095C156.212 85.935 156.977 87.015 157.307 88.335H157.532V74.7H164.192V108H157.532V104.04ZM153.167 103.14C154.427 103.14 155.462 102.84 156.272 102.24C157.112 101.61 157.532 100.755 157.532 99.675V92.7C157.532 91.62 157.112 90.78 156.272 90.18C155.462 89.55 154.427 89.235 153.167 89.235C151.907 89.235 150.857 89.685 150.017 90.585C149.207 91.455 148.802 92.64 148.802 94.14V98.235C148.802 99.735 149.207 100.935 150.017 101.835C150.857 102.705 151.907 103.14 153.167 103.14ZM180.274 108.54C178.474 108.54 176.869 108.255 175.459 107.685C174.049 107.085 172.849 106.26 171.859 105.21C170.899 104.13 170.164 102.825 169.654 101.295C169.174 99.765 168.934 98.055 168.934 96.165C168.934 94.305 169.174 92.625 169.654 91.125C170.134 89.595 170.839 88.29 171.769 87.21C172.729 86.13 173.899 85.305 175.279 84.735C176.659 84.135 178.234 83.835 180.004 83.835C181.954 83.835 183.619 84.165 184.999 84.825C186.409 85.485 187.549 86.37 188.419 87.48C189.319 88.59 189.964 89.88 190.354 91.35C190.774 92.79 190.984 94.305 190.984 95.895V97.875H175.819V98.235C175.819 99.795 176.239 101.04 177.079 101.97C177.919 102.87 179.239 103.32 181.039 103.32C182.419 103.32 183.544 103.05 184.414 102.51C185.284 101.94 186.094 101.265 186.844 100.485L190.174 104.625C189.124 105.855 187.744 106.815 186.034 107.505C184.354 108.195 182.434 108.54 180.274 108.54ZM180.139 88.74C178.789 88.74 177.724 89.19 176.944 90.09C176.194 90.96 175.819 92.13 175.819 93.6V93.96H184.099V93.555C184.099 92.115 183.769 90.96 183.109 90.09C182.479 89.19 181.489 88.74 180.139 88.74Z" fill="#7F2F3A"/>
<path d="M45.2513 64.1323L45.3504 64.1819C47.655 65.4704 48.547 68.3697 47.3328 70.699C43.1202 78.7525 34.6455 84.2536 24.907 84.1793C11.3276 84.0801 0.201484 73.0283 0.00324541 59.4489C-0.219774 45.4235 11.0799 34 25.0805 34C32.9853 34 40.0475 37.6674 44.6318 43.3916L35.6615 48.2484C32.787 45.4483 28.7975 43.7633 24.4362 43.9367C16.4323 44.2589 9.98954 50.8751 9.89042 58.9038C9.7913 67.3785 16.6305 74.2673 25.0557 74.2673C30.9038 74.2673 35.9836 70.9716 38.5112 66.1147C39.7997 63.6863 42.8477 62.7942 45.2513 64.1323Z" fill="#7F2F3A"/>
<path d="M47.4073 47.6536C48.5224 49.8342 47.7294 52.5105 45.5736 53.6999L40.0724 56.7478L26.4435 64.3057C24.3124 65.4951 21.6362 64.9004 20.199 62.918L20.1494 62.8437C18.4396 60.4896 19.183 57.1443 21.7601 55.7566L35.6864 48.2236L44.6567 43.3667C45.6975 44.7048 46.6143 46.142 47.4073 47.6536Z" fill="#D7D5B7"/>
</svg>
